<svg xmlns="http://www.w3.org/2000/svg" viewBox="0 0 960 470" width="960" height="470" role="img" aria-label="uI-PiPe — a manifold of interconnected pipes, flowing host to provider">
<defs>
<linearGradient id="bg" x1="40" y1="20" x2="920" y2="450" gradientUnits="userSpaceOnUse"><stop offset="0" stop-color="#0F3D3A"/><stop offset="1" stop-color="#0A222E"/></linearGradient>
<clipPath id="card"><rect width="960" height="470" rx="26"/></clipPath>
</defs>
<g clip-path="url(#card)">
<rect width="960" height="470" fill="url(#bg)"/>
<g fill="none" stroke-linecap="round" stroke-linejoin="round">
<path d="M110,95 L110,380" stroke="#5EEAD4" stroke-width="20"/>
<path d="M110,95 L850,95" stroke="#5EEAD4" stroke-width="20"/>
<path d="M110,190 L850,190" stroke="#5EEAD4" stroke-width="20"/>
<path d="M110,285 L850,285" stroke="#5EEAD4" stroke-width="20"/>
<path d="M110,380 L850,380" stroke="#5EEAD4" stroke-width="20"/>
<path d="M360,95 L360,190" stroke="#2DD4BF" stroke-width="15"/>
<path d="M250,190 L250,285" stroke="#2DD4BF" stroke-width="15"/>
<path d="M520,190 L520,285" stroke="#2DD4BF" stroke-width="15"/>
<path d="M450,285 L450,380" stroke="#2DD4BF" stroke-width="15"/>
<path d="M660,95 L660,190" stroke="#2DD4BF" stroke-width="15"/>
<path d="M720,285 L720,380" stroke="#2DD4BF" stroke-width="15"/>
<path d="M300,95 L300,48 L440,48" stroke="#2DD4BF" stroke-width="15"/>
<path d="M690,380 L690,422 L550,422" stroke="#2DD4BF" stroke-width="15"/>
</g>
<g fill="none" stroke="#CFFAF3" stroke-width="4.5" stroke-linecap="round" stroke-linejoin="round">
<path d="M110,95 L850,95"/>
<path d="M110,190 L850,190"/>
<path d="M110,285 L850,285"/>
<path d="M110,380 L850,380"/>
<path d="M110,95 L110,380"/>
</g>
<g fill="none" stroke="#34D399" stroke-width="10" stroke-linecap="round" stroke-linejoin="round" opacity="0.45">
<path d="M183,87 L197,95 L183,103"/>
<path d="M473,87 L487,95 L473,103"/>
<path d="M763,87 L777,95 L763,103"/>
<path d="M163,182 L177,190 L163,198"/>
<path d="M583,182 L597,190 L583,198"/>
<path d="M773,182 L787,190 L773,198"/>
<path d="M168,277 L182,285 L168,293"/>
<path d="M353,277 L367,285 L353,293"/>
<path d="M793,277 L807,285 L793,293"/>
<path d="M203,372 L217,380 L203,388"/>
<path d="M583,372 L597,380 L583,388"/>
<path d="M808,372 L822,380 L808,388"/>
</g>
<g fill="none" stroke="#ECFEFF" stroke-width="4.5" stroke-linecap="round" stroke-linejoin="round" opacity="1">
<path d="M183,87 L197,95 L183,103"/>
<path d="M473,87 L487,95 L473,103"/>
<path d="M763,87 L777,95 L763,103"/>
<path d="M163,182 L177,190 L163,198"/>
<path d="M583,182 L597,190 L583,198"/>
<path d="M773,182 L787,190 L773,198"/>
<path d="M168,277 L182,285 L168,293"/>
<path d="M353,277 L367,285 L353,293"/>
<path d="M793,277 L807,285 L793,293"/>
<path d="M203,372 L217,380 L203,388"/>
<path d="M583,372 L597,380 L583,388"/>
<path d="M808,372 L822,380 L808,388"/>
</g>
<g fill="#14B8A6">
<rect x="844" y="77" width="12" height="36" rx="3"/>
<rect x="844" y="172" width="12" height="36" rx="3"/>
<rect x="844" y="267" width="12" height="36" rx="3"/>
<rect x="844" y="362" width="12" height="36" rx="3"/>
<rect x="422" y="42" width="36" height="12" rx="3"/>
<rect x="532" y="416" width="36" height="12" rx="3"/>
<circle cx="360" cy="95" r="12"/>
<circle cx="660" cy="95" r="12"/>
<circle cx="450" cy="285" r="12"/>
<circle cx="300" cy="95" r="12"/>
<circle cx="690" cy="380" r="12"/>
</g>
<g fill="none" stroke="#99F6E4" stroke-width="6" stroke-linecap="round">
<path d="M560,95 L560,69" stroke-width="10"/>
<circle cx="560" cy="51" r="18"/>
<path d="M542,51 H578 M560,33 V69"/>
</g>
<circle cx="560" cy="51" r="5" fill="#0F3D3A"/>
<g fill="none" stroke="#99F6E4" stroke-width="6" stroke-linecap="round">
<path d="M400,190 L400,164" stroke-width="10"/>
<circle cx="400" cy="148" r="16"/>
<path d="M384,148 H416 M400,132 V164"/>
</g>
<circle cx="400" cy="148" r="5" fill="#0F3D3A"/>
<g fill="none" stroke="#99F6E4" stroke-width="6" stroke-linecap="round">
<path d="M640,285 L640,311" stroke-width="10"/>
<circle cx="640" cy="328" r="17"/>
<path d="M623,328 H657 M640,311 V345"/>
</g>
<circle cx="640" cy="328" r="5" fill="#0F3D3A"/>
<g fill="none" stroke="#99F6E4" stroke-width="6" stroke-linecap="round">
<path d="M480,380 L480,406" stroke-width="10"/>
<circle cx="480" cy="421" r="15"/>
<path d="M465,421 H495 M480,406 V436"/>
</g>
<circle cx="480" cy="421" r="5" fill="#0F3D3A"/>
<g fill="none" stroke="#99F6E4" stroke-width="6" stroke-linecap="round"><circle cx="250" cy="237" r="15"/><path d="M235,237 H265 M250,222 V252"/></g><circle cx="250" cy="237" r="4.5" fill="#0F3D3A"/>
<g fill="#0A222E">
<circle cx="850" cy="86" r="2.4"/><circle cx="850" cy="104" r="2.4"/>
<circle cx="850" cy="181" r="2.4"/><circle cx="850" cy="199" r="2.4"/>
<circle cx="850" cy="276" r="2.4"/><circle cx="850" cy="294" r="2.4"/>
<circle cx="850" cy="371" r="2.4"/><circle cx="850" cy="389" r="2.4"/>
<circle cx="433" cy="48" r="2.2"/><circle cx="447" cy="48" r="2.2"/>
<circle cx="543" cy="422" r="2.2"/><circle cx="557" cy="422" r="2.2"/>
</g>
</g></svg>